<?xml version="1.0" encoding="utf-8"?>
<svg xmlns="http://www.w3.org/2000/svg" viewBox="0 0 100 100">
  <title>fire</title>
  <g style="" transform="matrix(0.599996, 0, 0, 0.6, 5.000453, -5.000004)">
    <path d="M 169.403 201.148 C 170.408 207.795 171.968 212.833 174.606 214.695 C 174.647 212.463 174.901 210.239 175.366 208.051 C 176.891 200.945 179.341 200.562 181.7 195.311 C 182.894 192.681 183.165 189.765 182.473 186.983 C 190.926 188.347 198.775 200.219 200.745 215.317 C 202.891 212.741 204.147 209.618 204.345 206.361 C 208.075 209.916 209.923 214.145 210.613 218.785 C 212.011 227.671 209.084 233.438 201.348 235.706 C 203.069 232.042 202.658 229.193 200.867 225.423 C 200.15 223.882 199.125 222.482 197.849 221.296 C 197.299 224.959 196.447 227.707 194.997 228.728 C 194.967 227.498 194.821 226.272 194.56 225.065 C 193.721 221.166 192.376 220.958 191.065 218.077 C 190.405 216.635 190.252 215.033 190.628 213.505 C 185.994 214.255 181.687 220.771 180.582 229.055 C 179.406 227.641 178.718 225.929 178.607 224.145 C 176.686 226.003 175.476 228.399 175.165 230.963 C 174.781 233.406 174.995 235.44 175.842 236.983 C 169.893 236.348 165.905 233.258 163.384 228.273 C 159.763 221.133 160.409 215.809 163.821 208.675 C 165.155 205.859 167.049 203.306 169.403 201.148 Z" style="" transform="matrix(1, 0, 0, 1, -110.94999357649138, -86.98300174104668)"/>
  </g>
  <g transform="matrix(1, 0, 0, 1, 0, -5)">
    <rect x="10" y="45" width="7" height="55" style=""/>
    <rect x="83" y="45" width="7" height="55" style=""/>
    <path d="M 50 10 L 97.5 50 L 2.5 50 L 50 10 Z" style=""/>
  </g>
</svg>